<?xml version="1.0" encoding="UTF-8" standalone="no"?>
<!-- Created with Inkscape (http://www.inkscape.org/) -->

<svg
   version="1.1"
   id="svg1"
   width="1254"
   height="1254"
   viewBox="0 0 1254 1254"
   sodipodi:docname="file_00000000edc072098ca7d97931431469.svg"
   inkscape:version="1.4.3 (0d15f75, 2025-12-25)"
   xmlns:inkscape="http://www.inkscape.org/namespaces/inkscape"
   xmlns:sodipodi="http://sodipodi.sourceforge.net/DTD/sodipodi-0.dtd"
   xmlns="http://www.w3.org/2000/svg"
   xmlns:svg="http://www.w3.org/2000/svg">
  <defs
     id="defs1" />
  <sodipodi:namedview
     id="namedview1"
     pagecolor="#ffffff"
     bordercolor="#000000"
     borderopacity="0.25"
     inkscape:showpageshadow="2"
     inkscape:pageopacity="0.0"
     inkscape:pagecheckerboard="0"
     inkscape:deskcolor="#d1d1d1"
     inkscape:zoom="0.74883345"
     inkscape:cx="771.19953"
     inkscape:cy="640.3293"
     inkscape:window-width="1920"
     inkscape:window-height="1051"
     inkscape:window-x="-9"
     inkscape:window-y="-9"
     inkscape:window-maximized="1"
     inkscape:current-layer="g1" />
  <g
     inkscape:groupmode="layer"
     inkscape:label="Image"
     id="g1">
    <path
       style="fill:#ffffff;fill-opacity:1"
       d="m 581.55072,709.08207 c -0.31202,-0.50487 7.14415,-12.76737 16.56927,-27.25 C 668.40451,573.83291 694.93323,532.47222 719.3971,492.75 L 732.17648,472 h 28.56543 28.56544 l -0.62503,11.75 c -0.34377,6.4625 -1.11529,29.525 -1.71448,51.25 -1.25029,45.33154 -1.84935,48.27343 -8.83379,43.38134 l -1.99534,-1.39759 0.58282,-29.27328 0.58281,-29.27329 -1.18735,-2.21859 L 774.92963,514 h -2.87592 -2.87592 l -2.46414,2.92846 c -1.35527,1.61065 -8.89959,12.97315 -16.76514,25.25 -12.66249,19.76407 -38.88741,60.12962 -68.42591,105.32154 -12.16447,18.61083 -19.57278,29.97217 -31.46203,48.25 L 640.79132,710 h -29.33664 c -16.73056,0 -29.58042,-0.39444 -29.90396,-0.91793 z M 778.55305,708.75 c -0.21129,-0.6875 -0.63351,-3.99781 -0.93825,-7.35624 -2.22194,-24.48685 -20.61616,-45.57248 -45.00869,-51.59427 -9.76258,-2.41009 -9.99862,-3.06858 -1.68612,-4.70397 23.07782,-4.54028 41.88799,-25.0524 47.08523,-51.34552 1.40948,-7.13065 2.52947,-7.3153 3.42498,-0.56468 3.16385,23.8503 23.54313,46.68885 46.36127,51.9559 6.43907,1.48632 6.52702,2.23574 0.45853,3.90703 -25.7405,7.08907 -47.25,33.11972 -47.25,57.18165 0,3.56314 -1.61514,5.22656 -2.44695,2.5201 z M 175.35618,669.33333 c -0.96925,-0.96925 -0.78941,-114.59155 0.18379,-116.1256 l 0.81982,-1.29227 52.41486,0.29227 52.41486,0.29227 5.6816,2.79009 c 6.68604,3.28334 11.12733,8.01039 14.71729,15.66428 l 2.60111,5.54563 v 13.5 13.5 l -2.90922,6.30048 -2.90922,6.30048 -4.84658,4.3575 C 287.67484,625.71781 281.46723,628 273.01137,628 c -8.25206,0 -9.20813,-1.45184 13.67809,20.77096 23.43869,22.75927 23.2816,21.24026 2.19103,21.18652 l -16.69098,-0.0425 -33.69701,-32.63871 C 219.95915,619.32495 205.02321,604.26909 205.30152,603.81876 205.57983,603.36844 220.83481,603 239.20147,603 h 33.39393 l 2.43679,-1.11027 c 3.3101,-1.50817 4.65732,-4.89678 4.65732,-11.71428 v -5.73044 l -1.63069,-2.32814 c -0.89687,-1.28047 -3.13243,-2.9556 -4.96788,-3.7225 L 269.75375,577 h -34.33212 -34.33212 l -1.2,1.2 -1.2,1.2 v 45.3 45.3 h -11.33333 c -6.23334,0 -11.63334,-0.3 -12,-0.66667 z m 149.4591,0.14862 c -0.6786,-0.6786 -0.31326,-1.37383 25.7397,-48.98195 11.13628,-20.35 24.0098,-43.975 28.60782,-52.5 l 8.36002,-15.5 h 9.9496 9.9496 l 4.12309,7.5 c 2.26771,4.125 7.86491,14.475 12.43824,23 8.89968,16.58961 14.08221,26.07411 26.77464,49 4.41519,7.975 10.74855,19.5871 14.07412,25.80467 l 6.0465,11.30468 -1.24219,0.47667 c -0.6832,0.26217 -7.06839,0.35007 -14.18931,0.19533 L 442.5,669.5 437.6206,660.25 432.74121,651 h -35.40433 -35.40433 l -2.21628,3.68553 c -1.21895,2.02704 -3.56627,6.18954 -5.21627,9.25 l -3,5.56447 -13.05566,0.27767 c -7.18062,0.15272 -13.31369,0.0197 -13.62906,-0.29572 z M 418.9811,624.75 c -0.0104,-0.6875 -4.45471,-9.575 -9.87625,-19.75 l -9.85734,-18.5 h -1.6953 -1.6953 l -9.92845,18.8859 C 380.46781,615.77315 376,624.66065 376,625.1359 376,625.61116 385.675,626 397.5,626 H 419 Z M 511,649.49794 V 628.99587 L 488.70762,598.74794 C 476.44682,582.11157 463.86852,565.0658 460.75585,560.86844 453.78933,551.47425 453.11724,552 472.09279,552 h 15.75946 l 17.32387,25.45845 c 20.72395,30.45504 15.28599,30.44882 36.31416,0.0416 L 559.12482,552 h 15.93759 c 9.62825,0 15.93759,0.38395 15.93759,0.96986 0,0.53343 -7.5375,11.0655 -16.75,23.4046 -9.2125,12.3391 -21.8125,29.23785 -28,37.55277 L 535,629.04527 V 649.52264 670 h -12 -12 z m 333.68442,16.78299 c -0.43089,-3.24639 -0.29921,-95.94218 0.15565,-109.57387 L 845,551.91412 l 50.75,0.29294 50.75,0.29294 5,2.30122 c 6.60181,3.03845 10.98816,7.3829 14.84054,14.69878 l 3.15946,6 -0.0156,14.5 -0.0156,14.5 -2.6006,5.57194 c -3.19929,6.85467 -8.76853,12.47424 -15.36815,15.50703 l -5,2.2977 -6.73683,0.31167 -6.73683,0.31166 19.48683,19.50915 C 963.23093,658.73918 972,668.07668 972,668.75915 V 670 H 955.24423 938.48846 L 906.24423,637.74432 C 888.5099,620.00369 874,604.92869 874,604.24432 V 603 h 32.86514 32.86514 l 2.61076,-2.05362 c 4.81939,-3.79094 5.46871,-15.18416 1.13808,-19.96945 -3.13963,-3.46926 -8.14389,-3.96563 -40.03799,-3.97135 L 872.38226,577 l -1.68811,1.25 -1.6881,1.25 -0.25303,45 -0.25302,45 -11.65688,0.28093 -11.65687,0.28093 z m 168.62988,1.86185 c -10.9405,-3.78048 -17.61512,-10.6872 -20.84931,-21.57428 L 991,641.637 l 0.0156,-29.0685 0.0156,-29.0685 1.32926,-5.64745 C 995.00221,566.62888 1001.49,558.99045 1012,554.7297 l 5.5,-2.2297 h 42 42 l 0.2804,12.20539 0.2804,12.20539 -38.2804,0.29461 -38.2804,0.29461 -2.9627,1.5 c -1.6294,0.825 -3.9919,3.02905 -5.25,4.89788 L 1015,587.29577 v 23.90177 23.90178 l 1.5169,2.93341 c 0.8343,1.61338 2.837,3.61603 4.4504,4.45034 L 1023.9007,644 H 1062.9503 1102 v 13 13 l -41.75,-0.0326 -41.75,-0.0326 z"
       id="path1"
       sodipodi:nodetypes="ssscccssscccccccsssscsssssssssssssscccsscccccsssscssscsscsscccccccssssscccsssscsscccccsscsssscccssscsccssscsscssssccccccsscccsscccsscccsscccsscccssscccccccssscccsscccccccsscccsscccccccs" />
  </g>
</svg>
